<?xml version="1.0" standalone="no"?>
<!DOCTYPE svg PUBLIC "-//W3C//DTD SVG 20010904//EN"
 "http://www.w3.org/TR/2001/REC-SVG-20010904/DTD/svg10.dtd">
<svg version="1.0" xmlns="http://www.w3.org/2000/svg"
 width="520.000000pt" height="524.000000pt" viewBox="0 0 520.000000 524.000000"
 preserveAspectRatio="xMidYMid meet">

<g transform="translate(0.000000,524.000000) scale(0.100000,-0.100000)"
fill="#F2B450" stroke="none">
<path d="M1325 4825 c-682 -228 -1248 -419 -1258 -425 -10 -6 -26 -25 -37 -43
-20 -31 -20 -59 -20 -1500 0 -1567 -2 -1495 46 -1539 11 -9 577 -308 1259
-664 1167 -610 1243 -648 1290 -647 46 0 148 50 1294 634 932 475 1250 641
1265 662 l21 28 3 1482 c2 1455 2 1483 -18 1514 -10 18 -29 39 -42 47 -36 23
-2506 866 -2536 865 -15 0 -585 -187 -1267 -414z m2314 -222 l1044 -357 -39
-17 c-22 -9 -475 -209 -1009 -444 -533 -235 -984 -434 -1001 -441 -30 -12 -61
1 -1045 447 -558 254 -1025 465 -1039 471 -22 9 110 56 1005 354 567 188 1032
343 1035 343 3 1 475 -159 1049 -356z m-2251 -1018 l1082 -490 0 -1368 0
-1368 -182 95 c-101 52 -592 309 -1093 570 l-910 475 -3 1291 c-2 1079 0 1291
11 1288 8 -2 501 -223 1095 -493z m3532 -827 l0 -1293 -673 -342 c-369 -187
-860 -436 -1089 -553 l-418 -212 0 1369 0 1368 1083 477 c595 262 1085 477
1090 478 4 0 7 -582 7 -1292z"/>
<path d="M916 3189 c-71 -11 -169 -54 -218 -98 -40 -35 -102 -125 -96 -141 3
-9 480 -246 509 -252 6 -2 18 15 25 37 24 67 85 115 148 115 54 0 153 -40 200
-81 61 -54 86 -104 86 -173 0 -65 -29 -108 -87 -127 -47 -15 -138 -7 -196 19
l-45 20 -5 -21 c-12 -52 -39 -278 -34 -291 3 -7 27 -16 54 -20 168 -22 313
-125 359 -253 20 -57 18 -181 -4 -223 -44 -83 -153 -99 -278 -41 -116 54 -194
152 -229 288 -8 31 -16 57 -17 59 -9 7 -551 154 -556 150 -10 -11 51 -157 101
-243 66 -111 226 -276 347 -355 156 -103 420 -225 615 -284 78 -24 108 -28
220 -28 128 -1 132 0 197 32 75 37 124 88 160 168 30 68 37 217 13 300 -38
134 -145 273 -281 363 l-73 49 37 6 c113 20 193 72 235 150 30 58 30 196 -1
280 -45 124 -167 269 -296 351 -249 159 -678 277 -890 244z"/>
<path d="M4129 3239 c-92 -13 -199 -58 -609 -255 l-393 -189 6 -560 c7 -542
24 -1205 32 -1213 3 -4 234 117 738 384 392 208 610 428 717 722 48 131 63
244 56 402 -20 424 -161 669 -407 710 -35 5 -68 9 -74 9 -5 -1 -35 -5 -66 -10z
m-127 -489 c24 0 76 -47 97 -89 53 -103 79 -414 47 -541 -45 -174 -110 -240
-377 -383 l-86 -47 -7 88 c-3 48 -13 215 -21 372 -8 157 -17 330 -20 386 l-6
100 98 46 c129 60 195 80 238 72 11 -2 28 -4 37 -4z"/>
</g>
</svg>
