<?xml version="1.0" standalone="no"?>
<!DOCTYPE svg PUBLIC "-//W3C//DTD SVG 20010904//EN"
 "http://www.w3.org/TR/2001/REC-SVG-20010904/DTD/svg10.dtd">
<svg version="1.0" xmlns="http://www.w3.org/2000/svg"
 width="512.000000pt" height="512.000000pt" viewBox="0 0 512.000000 512.000000"
 preserveAspectRatio="xMidYMid meet">

<g transform="translate(0.000000,512.000000) scale(0.100000,-0.100000)"
fill="#F2B450" stroke="none">
<path d="M1612 4166 l-952 -339 0 -31 c1 -17 65 -584 143 -1261 l142 -1229
809 -448 809 -448 806 446 c443 245 807 447 807 448 1 0 65 557 143 1236 78
679 144 1246 147 1260 4 23 0 28 -43 43 -26 9 -455 162 -953 340 l-906 323
-952 -340z m1498 -1348 c299 -673 565 -1271 591 -1330 l48 -108 -223 0 -224 0
-119 298 -119 297 -505 3 -505 2 -120 -300 -119 -300 -224 0 c-174 0 -222 3
-218 13 34 87 1182 2647 1187 2647 4 0 251 -550 550 -1222z"/>
<path d="M2387 2767 c-92 -222 -167 -407 -167 -410 0 -4 153 -7 340 -7 187 0
340 3 340 7 0 13 -335 813 -340 813 -3 0 -81 -182 -173 -403z"/>
</g>
</svg>
