<svg width="380" height="315" viewBox="0 0 380 315" fill="none" xmlns="http://www.w3.org/2000/svg">
<g opacity="0.4" filter="url(#filter0_f_48_10)">
<path d="M166 165.138C166 150.15 178.15 138 193.138 138H312.862C327.85 138 340 150.15 340 165.138V230.048C340 245.036 327.85 257.187 312.861 257.187C312.314 257.187 311.767 257.187 311.223 257.187C307.234 257.187 306.682 275 302.858 275C298.88 275 291.637 257.187 287.8 257.187C255.782 257.187 227.993 257.187 193.145 257.187C178.157 257.187 166 245.036 166 230.048V165.138Z" fill="url(#paint0_linear_48_10)"/>
<path d="M193.138 138.449H312.862C327.602 138.449 339.551 150.398 339.551 165.138V230.048C339.551 244.788 327.602 256.738 312.861 256.738H312.858H312.855H312.852H312.849H312.845H312.842H312.839H312.836H312.833H312.829H312.826H312.823H312.82H312.816H312.813H312.81H312.807H312.804H312.8H312.797H312.794H312.791H312.788H312.784H312.781H312.778H312.775H312.772H312.768H312.765H312.762H312.759H312.756H312.752H312.749H312.746H312.743H312.739H312.736H312.733H312.73H312.727H312.723H312.72H312.717H312.714H312.711H312.707H312.704H312.701H312.698H312.695H312.691H312.688H312.685H312.682H312.679H312.675H312.672H312.669H312.666H312.662H312.659H312.656H312.653H312.65H312.646H312.643H312.64H312.637H312.634H312.63H312.627H312.624H312.621H312.618H312.614H312.611H312.608H312.605H312.602H312.598H312.595H312.592H312.589H312.586H312.582H312.579H312.576H312.573H312.569H312.566H312.563H312.56H312.557H312.553H312.55H312.547H312.544H312.541H312.537H312.534H312.531H312.528H312.525H312.521H312.518H312.515H312.512H312.509H312.505H312.502H312.499H312.496H312.493H312.489H312.486H312.483H312.48H312.477H312.473H312.47H312.467H312.464H312.46H312.457H312.454H312.451H312.448H312.444H312.441H312.438H312.435H312.432H312.428H312.425H312.422H312.419H312.416H312.412H312.409H312.406H312.403H312.4H312.396H312.393H312.39H312.387H312.384H312.38H312.377H312.374H312.371H312.368H312.364H312.361H312.358H312.355H312.352H312.348H312.345H312.342H312.339H312.336H312.332H312.329H312.326H312.323H312.32H312.316H312.313H312.31H312.307H312.303H312.3H312.297H312.294H312.291H312.287H312.284H312.281H312.278H312.275H312.271H312.268H312.265H312.262H312.259H312.255H312.252H312.249H312.246H312.243H312.239H312.236H312.233H312.23H312.227H312.223H312.22H312.217H312.214H312.211H312.207H312.204H312.201H312.198H312.195H312.191H312.188H312.185H312.182H312.179H312.175H312.172H312.169H312.166H312.163H312.159H312.156H312.153H312.15H312.147H312.143H312.14H312.137H312.134H312.131H312.127H312.124H312.121H312.118H312.115H312.111H312.108H312.105H312.102H312.099H312.095H312.092H312.089H312.086H312.083H312.079H312.076H312.073H312.07H312.067H312.063H312.06H312.057H312.054H312.051H312.047H312.044H312.041H312.038H312.035H312.031H312.028H312.025H312.022H312.019H312.015H312.012H312.009H312.006H312.003H311.999H311.996H311.993H311.99H311.987H311.983H311.98H311.977H311.974H311.971H311.967H311.964H311.961H311.958H311.955H311.951H311.948H311.945H311.942H311.939H311.935H311.932H311.929H311.926H311.923H311.919H311.916H311.913H311.91H311.907H311.903H311.9H311.897H311.894H311.891H311.887H311.884H311.881H311.878H311.875H311.871H311.868H311.865H311.862H311.859H311.855H311.852H311.849H311.846H311.843H311.839H311.836H311.833H311.83H311.827H311.823H311.82H311.817H311.814H311.811H311.807H311.804H311.801H311.798H311.795H311.791H311.788H311.785H311.782H311.779H311.776H311.772H311.769H311.766H311.763H311.76H311.756H311.753H311.75H311.747H311.744H311.74H311.737H311.734H311.731H311.728H311.724H311.721H311.718H311.715H311.712H311.708H311.705H311.702H311.699H311.696H311.692H311.689H311.686H311.683H311.68H311.676H311.673H311.67H311.667H311.664H311.66H311.657H311.654H311.651H311.648H311.644H311.641H311.638H311.635H311.632H311.629H311.625H311.622H311.619H311.616H311.613H311.609H311.606H311.603H311.6H311.597H311.593H311.59H311.587H311.584H311.581H311.577H311.574H311.571H311.568H311.565H311.561H311.558H311.555H311.552H311.549H311.545H311.542H311.539H311.536H311.533H311.529H311.526H311.523H311.52H311.517H311.514H311.51H311.507H311.504H311.501H311.498H311.494H311.491H311.488H311.485H311.482H311.478H311.475H311.472H311.469H311.466H311.462H311.459H311.456H311.453H311.45H311.446H311.443H311.44H311.437H311.434H311.43H311.427H311.424H311.421H311.418H311.415H311.411H311.408H311.405H311.402H311.399H311.395H311.392H311.389H311.386H311.383H311.379H311.376H311.373H311.37H311.367H311.363H311.36H311.357H311.354H311.351H311.348H311.344H311.341H311.338H311.335H311.332H311.328H311.325H311.322H311.319H311.316H311.312H311.309H311.306H311.303H311.3H311.296H311.293H311.29H311.287H311.284H311.281H311.277H311.274H311.271H311.268H311.265H311.261H311.258H311.255H311.252H311.249H311.245H311.242H311.239H311.236H311.233H311.229H311.226H311.223C310.538 256.738 309.978 257.124 309.529 257.665C309.081 258.205 308.697 258.951 308.354 259.802C307.668 261.507 307.098 263.767 306.543 265.984L306.512 266.106C305.963 268.301 305.426 270.446 304.799 272.053C304.479 272.873 304.147 273.52 303.8 273.954C303.453 274.39 303.141 274.551 302.858 274.551C302.52 274.551 302.074 274.355 301.513 273.889C300.963 273.432 300.362 272.765 299.721 271.941C298.44 270.293 297.054 268.087 295.657 265.855L295.574 265.722C294.211 263.546 292.839 261.354 291.568 259.697C290.92 258.852 290.285 258.127 289.676 257.61C289.081 257.104 288.444 256.738 287.8 256.738H287.612H287.425H287.238H287.05H286.863H286.676H286.489H286.302H286.115H285.929H285.742H285.556H285.369H285.183H284.997H284.81H284.624H284.438H284.252H284.067H283.881H283.695H283.51H283.324H283.139H282.953H282.768H282.583H282.398H282.213H282.028H281.843H281.659H281.474H281.289H281.105H280.921H280.736H280.552H280.368H280.184H280H279.816H279.632H279.448H279.264H279.081H278.897H278.714H278.53H278.347H278.164H277.98H277.797H277.614H277.431H277.248H277.065H276.882H276.7H276.517H276.334H276.152H275.969H275.787H275.605H275.422H275.24H275.058H274.876H274.694H274.512H274.33H274.148H273.966H273.785H273.603H273.421H273.24H273.058H272.877H272.695H272.514H272.333H272.152H271.97H271.789H271.608H271.427H271.246H271.065H270.884H270.704H270.523H270.342H270.162H269.981H269.8H269.62H269.439H269.259H269.079H268.898H268.718H268.538H268.357H268.177H267.997H267.817H267.637H267.457H267.277H267.097H266.917H266.738H266.558H266.378H266.198H266.019H265.839H265.659H265.48H265.3H265.121H264.941H264.762H264.582H264.403H264.224H264.044H263.865H263.686H263.507H263.328H263.148H262.969H262.79H262.611H262.432H262.253H262.074H261.895H261.716H261.537H261.358H261.18H261.001H260.822H260.643H260.464H260.286H260.107H259.928H259.749H259.571H259.392H259.213H259.035H258.856H258.678H258.499H258.321H258.142H257.963H257.785H257.606H257.428H257.25H257.071H256.893H256.714H256.536H256.357H256.179H256.001H255.822H255.644H255.465H255.287H255.109H254.93H254.752H254.574H254.395H254.217H254.039H253.86H253.682H253.504H253.325H253.147H252.969H252.79H252.612H252.434H252.255H252.077H251.899H251.72H251.542H251.364H251.185H251.007H250.829H250.65H250.472H250.294H250.115H249.937H249.758H249.58H249.402H249.223H249.045H248.866H248.688H248.509H248.331H248.152H247.974H247.795H247.617H247.438H247.26H247.081H246.902H246.724H246.545H246.366H246.188H246.009H245.83H245.652H245.473H245.294H245.115H244.936H244.758H244.579H244.4H244.221H244.042H243.863H243.684H243.505H243.326H243.147H242.968H242.789H242.61H242.43H242.251H242.072H241.893H241.713H241.534H241.355H241.175H240.996H240.816H240.637H240.457H240.278H240.098H239.918H239.739H239.559H239.379H239.199H239.019H238.84H238.66H238.48H238.3H238.12H237.94H237.759H237.579H237.399H237.219H237.038H236.858H236.678H236.497H236.317H236.136H235.956H235.775H235.594H235.414H235.233H235.052H234.871H234.69H234.509H234.328H234.147H233.966H233.785H233.604H233.422H233.241H233.059H232.878H232.696H232.515H232.333H232.152H231.97H231.788H231.606H231.424H231.242H231.06H230.878H230.696H230.514H230.331H230.149H229.966H229.784H229.601H229.419H229.236H229.053H228.87H228.688H228.505H228.322H228.138H227.955H227.772H227.589H227.405H227.222H227.038H226.855H226.671H226.487H226.304H226.12H225.936H225.752H225.567H225.383H225.199H225.015H224.83H224.646H224.461H224.276H224.092H223.907H223.722H223.537H223.352H223.167H222.981H222.796H222.611H222.425H222.24H222.054H221.868H221.682H221.496H221.31H221.124H220.938H220.752H220.565H220.379H220.192H220.006H219.819H219.632H219.445H219.258H219.071H218.884H218.697H218.509H218.322H218.134H217.946H217.759H217.571H217.383H217.195H217.006H216.818H216.63H216.441H216.253H216.064H215.875H215.686H215.497H215.308H215.119H214.93H214.74H214.551H214.361H214.171H213.982H213.792H213.602H213.411H213.221H213.031H212.84H212.65H212.459H212.268H212.077H211.886H211.695H211.504H211.312H211.121H210.929H210.737H210.546H210.354H210.161H209.969H209.777H209.584H209.392H209.199H209.006H208.813H208.62H208.427H208.234H208.04H207.847H207.653H207.459H207.265H207.071H206.877H206.683H206.489H206.294H206.099H205.904H205.71H205.514H205.319H205.124H204.928H204.733H204.537H204.341H204.145H203.949H203.753H203.556H203.36H203.163H202.966H202.769H202.572H202.375H202.178H201.98H201.783H201.585H201.387H201.189H200.991H200.792H200.594H200.395H200.197H199.998H199.799H199.599H199.4H199.201H199.001H198.801H198.601H198.401H198.201H198H197.8H197.599H197.398H197.197H196.996H196.795H196.594H196.392H196.19H195.988H195.786H195.584H195.382H195.179H194.977H194.774H194.571H194.368H194.164H193.961H193.757H193.553H193.349H193.145C178.405 256.738 166.449 244.788 166.449 230.048V165.138C166.449 150.398 178.398 138.449 193.138 138.449Z" stroke="#979797" stroke-width="0.898396"/>
</g>
<path d="M159 136.208C159 119.524 172.524 106 189.208 106H315.792C332.476 106 346 119.524 346 136.208V208.131C346 224.814 332.475 238.338 315.792 238.338C315.552 238.338 315.312 238.338 315.073 238.338C310.786 238.338 310.192 258.117 306.083 258.117C301.808 258.117 294.023 238.338 289.9 238.338C255.81 238.338 226.181 238.338 189.216 238.338C172.533 238.338 159 224.814 159 208.131V136.208Z" fill="url(#paint1_linear_48_10)"/>
<g filter="url(#filter1_f_48_10)">
<rect x="159" y="106" width="114" height="88" rx="20" fill="#FF5C00" fill-opacity="0.4"/>
</g>
<g filter="url(#filter2_bi_48_10)">
<path d="M260 42C260 18.804 241.196 0 218 0H42C18.804 0 0 18.804 0 42V142C0 165.196 18.8044 184 42.0003 184C42.334 184 42.6672 184 43 184C48.9612 184 49.786 211.5 55.5 211.5C61.4434 211.5 72.2671 184 78 184C125.398 184 166.594 184 217.988 184C241.184 184 260 165.196 260 142V42Z" fill="url(#paint2_linear_48_10)" fill-opacity="0.3"/>
</g>
<circle cx="93.5" cy="94.5" r="11.5" fill="white"/>
<circle cx="130.5" cy="94.5" r="11.5" fill="white"/>
<circle cx="167.5" cy="94.5" r="11.5" fill="white"/>
<defs>
<filter id="filter0_f_48_10" x="126" y="98" width="254" height="217" filterUnits="userSpaceOnUse" color-interpolation-filters="sRGB">
<feFlood flood-opacity="0" result="BackgroundImageFix"/>
<feBlend mode="normal" in="SourceGraphic" in2="BackgroundImageFix" result="shape"/>
<feGaussianBlur stdDeviation="20" result="effect1_foregroundBlur_48_10"/>
</filter>
<filter id="filter1_f_48_10" x="129" y="76" width="174" height="148" filterUnits="userSpaceOnUse" color-interpolation-filters="sRGB">
<feFlood flood-opacity="0" result="BackgroundImageFix"/>
<feBlend mode="normal" in="SourceGraphic" in2="BackgroundImageFix" result="shape"/>
<feGaussianBlur stdDeviation="15" result="effect1_foregroundBlur_48_10"/>
</filter>
<filter id="filter2_bi_48_10" x="-25" y="-25" width="310" height="261.5" filterUnits="userSpaceOnUse" color-interpolation-filters="sRGB">
<feFlood flood-opacity="0" result="BackgroundImageFix"/>
<feGaussianBlur in="BackgroundImageFix" stdDeviation="12.5"/>
<feComposite in2="SourceAlpha" operator="in" result="effect1_backgroundBlur_48_10"/>
<feBlend mode="normal" in="SourceGraphic" in2="effect1_backgroundBlur_48_10" result="shape"/>
<feColorMatrix in="SourceAlpha" type="matrix" values="0 0 0 0 0 0 0 0 0 0 0 0 0 0 0 0 0 0 127 0" result="hardAlpha"/>
<feOffset dy="4"/>
<feGaussianBlur stdDeviation="20"/>
<feComposite in2="hardAlpha" operator="arithmetic" k2="-1" k3="1"/>
<feColorMatrix type="matrix" values="0 0 0 0 1 0 0 0 0 1 0 0 0 0 1 0 0 0 0.35 0"/>
<feBlend mode="normal" in2="shape" result="effect2_innerShadow_48_10"/>
</filter>
<linearGradient id="paint0_linear_48_10" x1="166" y1="126.742" x2="268.174" y2="365.62" gradientUnits="userSpaceOnUse">
<stop stop-color="#FF9E6B"/>
<stop offset="1" stop-color="#FFD55E"/>
</linearGradient>
<linearGradient id="paint1_linear_48_10" x1="190" y1="92.5" x2="314.5" y2="266" gradientUnits="userSpaceOnUse">
<stop offset="0.283719" stop-color="#FF9E6B"/>
<stop offset="1" stop-color="#FFD55E"/>
</linearGradient>
<linearGradient id="paint2_linear_48_10" x1="5.5" y1="-1.80145e-06" x2="202.5" y2="183" gradientUnits="userSpaceOnUse">
<stop stop-color="#FFA636" stop-opacity="0.1"/>
<stop offset="0.515821" stop-color="#FFA636" stop-opacity="0.8"/>
<stop offset="0.779545" stop-color="#FFA636"/>
<stop offset="0.988497" stop-color="#FFA636"/>
</linearGradient>
</defs>
</svg>
