<?xml version="1.0" standalone="no"?>
<!DOCTYPE svg PUBLIC "-//W3C//DTD SVG 20010904//EN"
 "http://www.w3.org/TR/2001/REC-SVG-20010904/DTD/svg10.dtd">
<svg version="1.0" xmlns="http://www.w3.org/2000/svg"
 width="1461.000000pt" height="2048.000000pt" viewBox="0 0 1461.000000 2048.000000"
 preserveAspectRatio="xMidYMid meet">

<g transform="translate(0.000000,2048.000000) scale(0.100000,-0.100000)"
fill="#189662" stroke="none">
<path d="M6600 20440 l-675 -5 -3 -837 -2 -838 951 0 952 0 -6 -206 c-3 -113
-8 -208 -12 -212 -4 -4 -426 -8 -938 -10 -699 -3 -934 -6 -939 -15 -4 -7 -8
-153 -8 -324 l0 -313 1367 0 1366 0 -6 437 c-4 240 -7 607 -7 815 l0 378 -398
0 c-219 0 -663 3 -985 7 l-587 6 0 159 0 158 688 3 c378 1 822 2 987 2 l300 0
3 398 2 397 -659 0 c-362 0 -671 1 -687 3 -16 2 -333 0 -704 -3z"/>
<path d="M2920 19060 l0 -1380 1340 0 1340 0 0 345 0 345 -702 0 c-387 0 -808
3 -935 7 l-233 6 0 292 c0 160 3 434 7 608 l6 317 927 0 927 0 6 107 c4 58 7
247 7 420 l0 313 -1345 0 -1345 0 0 -1380z"/>
<path d="M8945 19618 c-4 -453 -6 -832 -4 -843 4 -20 12 -20 947 -20 l942 0 0
-212 0 -213 -939 0 -940 0 -6 -52 c-3 -29 -5 -177 -3 -328 l3 -275 1360 0
1360 1 0 806 c0 444 -2 809 -5 811 -3 3 -447 8 -986 12 l-982 8 -6 45 c-3 25
-6 95 -6 157 l0 112 167 6 c91 4 539 7 995 7 l828 0 0 400 0 400 -1359 0
-1359 0 -7 -822z"/>
<path d="M0 16510 c0 -11 16 -168 35 -348 19 -180 53 -532 75 -782 22 -250 63
-705 90 -1010 27 -305 66 -742 85 -970 76 -894 144 -1656 395 -4430 165 -1832
242 -2696 355 -4000 68 -781 197 -2217 271 -3000 14 -157 29 -288 33 -291 3
-4 125 -39 271 -78 146 -40 747 -209 1335 -376 589 -167 1187 -336 1330 -375
143 -39 384 -107 535 -151 151 -44 597 -170 990 -280 393 -110 887 -250 1096
-310 l382 -110 348 100 c192 55 651 183 1019 286 369 103 859 241 1090 307
231 66 582 164 781 218 198 55 621 173 940 264 318 90 651 185 739 210 271 76
722 201 893 246 138 37 163 47 167 64 2 12 11 102 20 201 9 99 58 646 110
1215 97 1063 219 2435 325 3660 33 382 100 1141 150 1685 133 1457 316 3508
524 5880 102 1155 188 2121 191 2148 l6 47 -7291 0 -7290 0 0 -20z m13260
-1186 c0 -14 -29 -346 -65 -738 -35 -391 -128 -1431 -205 -2311 -77 -880 -187
-2120 -245 -2755 -131 -1447 -183 -2036 -340 -3825 -69 -786 -148 -1684 -175
-1995 -57 -647 -99 -1059 -110 -1079 -5 -9 -151 -54 -361 -111 -517 -142
-1138 -313 -1599 -440 -223 -61 -830 -228 -1350 -370 -520 -142 -1009 -277
-1087 -299 -154 -43 -401 -97 -409 -88 -3 3 -7 380 -8 838 -2 459 -7 876 -11
926 l-8 93 -51 0 c-28 0 -139 23 -246 50 -107 28 -589 149 -1070 269 -481 121
-968 245 -1082 275 -115 31 -299 81 -410 110 -112 30 -378 100 -593 156 -410
106 -579 151 -582 154 -3 3 -59 384 -83 566 -80 616 -168 1614 -192 2175 l-3
70 840 3 c582 2 861 -1 907 -9 65 -10 68 -12 72 -42 3 -18 24 -257 46 -532 41
-503 77 -906 82 -910 5 -4 211 -54 288 -71 41 -8 194 -37 340 -64 146 -27 420
-78 610 -115 853 -164 1126 -213 1138 -201 4 4 8 469 9 1034 2 565 4 1246 6
1515 l2 487 -1180 0 c-649 0 -1652 -5 -2229 -10 -577 -6 -1050 -9 -1052 -7 -2
2 -8 59 -14 128 -6 68 -33 342 -60 609 -52 507 -77 817 -82 1009 l-3 114 60
33 c33 19 101 51 150 73 400 174 1054 456 1775 766 1023 440 1602 692 2079
903 l353 157 -98 7 c-55 4 -1021 12 -2149 18 -1127 6 -2125 13 -2217 16 l-166
6 -6 32 c-11 61 -77 561 -101 771 -28 239 -61 592 -71 766 l-7 117 1339 7
c737 4 1861 5 2500 2 l1161 -5 6 142 c4 77 7 468 7 867 0 399 3 729 7 732 3 4
1342 7 2975 7 l2968 0 0 -26z"/>
</g>
</svg>
