<?xml version="1.0" standalone="no"?>
<!DOCTYPE svg PUBLIC "-//W3C//DTD SVG 20010904//EN"
 "http://www.w3.org/TR/2001/REC-SVG-20010904/DTD/svg10.dtd">
<svg version="1.0" xmlns="http://www.w3.org/2000/svg"
 width="225.000000pt" height="150.000000pt" viewBox="0 0 225.000000 225.000000"
 preserveAspectRatio="xMidYMid meet">

<g transform="translate(0.000000,225.000000) scale(0.100000,-0.100000)"
fill="#F2B450" stroke="none">
<path d="M490 2075 l0 -145 50 0 50 0 0 50 0 50 45 0 45 0 0 -50 0 -50 50 0
50 0 0 145 0 145 -50 0 -50 0 0 -50 0 -50 -45 0 -45 0 0 50 0 50 -50 0 -50 0
0 -145z"/>
<path d="M830 2175 l0 -45 40 0 40 0 0 -100 0 -100 51 0 50 0 -2 98 -2 97 42
3 41 3 0 45 0 44 -130 0 -130 0 0 -45z"/>
<path d="M1140 2075 l0 -145 45 0 44 0 3 73 3 72 36 -52 35 -52 30 49 c16 27
32 50 37 50 4 0 7 -31 7 -70 l0 -70 45 0 45 0 0 145 0 145 -49 0 c-48 0 -50
-1 -80 -50 -17 -27 -33 -50 -36 -50 -3 0 -19 23 -36 50 -30 49 -32 50 -80 50
l-49 0 0 -145z"/>
<path d="M1520 2075 l0 -145 120 0 120 0 0 45 0 45 -70 0 -70 0 0 100 0 100
-50 0 -50 0 0 -145z"/>
<path d="M350 1758 c0 -34 131 -1479 137 -1518 l8 -45 315 -83 314 -84 318 83
317 82 6 51 c7 66 135 1496 135 1513 0 11 -141 13 -775 13 -613 0 -775 -3
-775 -12z m1266 -330 c-3 -18 -8 -63 -11 -100 l-7 -68 -373 0 -374 0 4 -32 c3
-18 7 -63 11 -100 l6 -68 354 0 c306 0 354 -2 354 -15 0 -22 -51 -569 -53
-571 -7 -5 -391 -104 -402 -104 -14 0 -396 98 -401 103 -2 1 -9 69 -16 151
-11 109 -11 149 -3 152 6 3 52 4 101 2 l89 -3 8 -70 c4 -38 11 -72 15 -76 9
-8 176 -49 201 -49 11 0 65 10 120 21 l99 21 6 42 c3 22 8 76 12 119 l6 77
-339 0 -339 0 -22 268 c-13 147 -26 282 -29 300 l-5 32 496 0 497 0 -5 -32z"/>
</g>
</svg>
