<?xml version="1.0" standalone="no"?>
<!DOCTYPE svg PUBLIC "-//W3C//DTD SVG 20010904//EN"
 "http://www.w3.org/TR/2001/REC-SVG-20010904/DTD/svg10.dtd">
<svg version="1.0" xmlns="http://www.w3.org/2000/svg"
 width="225.000000pt" height="225.000000pt" viewBox="0 0 225.000000 225.000000"
 preserveAspectRatio="xMidYMid meet">

<g transform="translate(0.000000,225.000000) scale(0.100000,-0.100000)"
fill="#F2B450" stroke="none">
<path d="M1064 2237 c-18 -6 -222 -122 -454 -257 -309 -179 -430 -254 -449
-279 l-26 -34 -3 -529 c-2 -511 -2 -529 18 -567 23 -45 37 -56 182 -139 149
-86 199 -104 283 -105 116 0 197 49 230 142 13 37 15 120 15 558 l0 514 -72
-3 -73 -3 -5 -501 c-5 -472 -6 -503 -24 -523 -28 -31 -78 -44 -123 -32 -21 6
-94 43 -163 84 l-125 72 -3 488 -2 487 37 24 c88 57 806 466 818 466 12 0 728
-408 818 -466 l37 -24 0 -484 c0 -375 -3 -486 -12 -494 -29 -23 -831 -482
-843 -482 -8 0 -62 29 -122 65 l-108 65 -77 -33 c-43 -17 -76 -36 -75 -41 5
-17 320 -196 356 -202 22 -5 51 -2 76 7 37 14 817 459 878 501 15 11 36 37 47
58 19 38 20 61 20 555 0 494 -1 517 -20 555 -11 21 -32 47 -47 58 -30 20 -798
465 -847 490 -39 20 -105 24 -142 9z"/>
<path d="M1230 1559 c-83 -14 -176 -63 -211 -111 -79 -109 -57 -263 46 -324
65 -38 119 -52 290 -74 235 -31 285 -56 272 -138 -14 -84 -104 -118 -289 -109
-159 7 -217 41 -238 142 l-6 30 -74 0 -75 0 3 -49 c7 -109 81 -196 199 -236
53 -18 97 -24 198 -28 201 -6 310 27 388 119 76 89 76 233 -2 310 -46 46 -120
73 -257 94 -237 37 -297 52 -322 81 -18 21 -22 34 -18 58 15 71 73 96 227 96
147 -1 204 -29 234 -117 l13 -38 74 0 73 0 -3 40 c-10 109 -87 200 -200 235
-77 24 -241 34 -322 19z"/>
</g>
</svg>
