<?xml version="1.0" standalone="no"?>
<!DOCTYPE svg PUBLIC "-//W3C//DTD SVG 20010904//EN"
 "http://www.w3.org/TR/2001/REC-SVG-20010904/DTD/svg10.dtd">
<svg version="1.0" xmlns="http://www.w3.org/2000/svg"
 width="256.000000pt" height="281.000000pt" viewBox="0 0 256.000000 281.000000"
 preserveAspectRatio="xMidYMid meet">

<g transform="translate(0.000000,281.000000) scale(0.100000,-0.100000)"
fill="#6b1515" stroke="none">
<path d="M786 2469 l-141 -141 67 35 c123 65 378 211 378 217 0 7 -107 30
-140 30 -17 0 -62 -39 -164 -141z"/>
<path d="M1870 2332 c108 -64 231 -135 343 -197 l48 -26 -7 28 c-4 15 -15 51
-26 79 l-19 52 -102 36 c-93 33 -318 96 -342 96 -5 0 42 -31 105 -68z"/>
<path d="M66 1750 c-31 -33 -46 -58 -46 -76 0 -41 93 -384 102 -378 11 7 10
504 -1 504 -4 0 -29 -22 -55 -50z"/>
<path d="M1509 1588 c-39 -51 -92 -121 -116 -155 -25 -35 -48 -63 -53 -63 -4
0 -37 40 -72 90 -34 49 -69 89 -75 90 -7 0 -13 -2 -13 -5 0 -2 32 -48 70 -101
39 -53 70 -99 70 -103 0 -3 -34 -51 -75 -106 -41 -55 -74 -103 -75 -107 0 -13
28 -9 33 5 3 6 35 52 71 101 l65 88 73 -100 c40 -56 79 -101 86 -102 6 0 12 2
12 5 0 3 -34 52 -76 110 l-77 105 46 68 c24 37 77 113 116 170 40 56 69 102
67 102 -3 0 -38 -42 -77 -92z"/>
<path d="M486 1498 c-3 -29 -6 -126 -6 -215 0 -138 2 -163 15 -163 13 0 15 29
15 197 0 168 2 195 14 183 7 -8 60 -82 116 -165 119 -173 250 -355 256 -355 5
0 -10 23 -204 313 -95 141 -178 257 -186 257 -9 0 -15 -18 -20 -52z"/>
<path d="M850 1335 l0 -215 150 0 c93 0 150 4 150 10 0 6 -52 10 -135 10
l-135 0 0 95 0 94 123 3 c67 2 121 7 119 11 -1 5 -55 10 -120 10 l-117 2 -3
88 -3 87 131 0 c80 0 130 4 130 10 0 6 -55 10 -145 10 l-145 0 0 -215z"/>
<path d="M1530 1540 c0 -5 35 -10 78 -12 l77 -3 3 -202 c1 -124 6 -203 12
-203 6 0 10 78 10 205 l0 205 74 0 c41 0 78 5 81 10 4 7 -53 10 -164 10 -102
0 -171 -4 -171 -10z"/>
<path d="M2430 1165 l0 -279 51 49 c28 28 55 60 60 73 6 17 -5 74 -46 223 -30
111 -56 204 -59 207 -4 3 -6 -120 -6 -273z"/>
<path d="M2018 1229 c-28 -16 -21 -38 17 -56 19 -9 35 -21 35 -25 0 -16 -28
-20 -50 -8 -18 10 -21 9 -18 -2 3 -7 19 -14 36 -16 22 -2 34 2 41 17 9 16 7
23 -11 35 -12 9 -28 16 -35 16 -7 0 -13 7 -13 16 0 13 7 15 31 10 27 -5 30 -4
19 9 -14 17 -28 18 -52 4z"/>
<path d="M1950 1186 c0 -50 -13 -65 -37 -44 -14 11 -16 11 -11 -2 6 -20 48
-26 59 -8 12 18 11 98 -1 98 -5 0 -10 -20 -10 -44z"/>
<path d="M1860 1130 c0 -5 5 -10 11 -10 5 0 7 5 4 10 -3 6 -8 10 -11 10 -2 0
-4 -4 -4 -10z"/>
<path d="M310 564 c0 -27 36 -126 50 -139 15 -14 349 -110 356 -102 2 1 -32
23 -74 48 -42 26 -126 76 -187 114 -134 82 -145 88 -145 79z"/>
<path d="M1681 233 l-205 -117 45 -14 c97 -29 96 -29 242 116 73 73 130 132
127 132 -3 0 -97 -53 -209 -117z"/>
</g>
</svg>
