<?xml version="1.0" standalone="no"?>
<!DOCTYPE svg PUBLIC "-//W3C//DTD SVG 20010904//EN"
 "http://www.w3.org/TR/2001/REC-SVG-20010904/DTD/svg10.dtd">
<svg version="1.0" xmlns="http://www.w3.org/2000/svg"
 width="866.000000pt" height="650.000000pt" viewBox="0 0 866.000000 650.000000"
 preserveAspectRatio="xMidYMid meet">

<g transform="translate(0.000000,650.000000) scale(0.100000,-0.100000)"
fill="#F2B450" stroke="none">
<path d="M4199 6470 c-117 -29 -227 -96 -355 -217 -137 -129 -312 -396 -411
-628 -77 -180 -138 -349 -170 -465 -6 -22 -15 -34 -24 -33 -50 8 -185 34 -244
47 -38 8 -144 22 -235 32 -195 19 -513 15 -653 -10 -536 -94 -761 -411 -629
-886 16 -58 35 -121 43 -140 17 -44 165 -336 179 -353 6 -6 33 -46 60 -87 54
-81 78 -114 131 -181 35 -46 43 -54 184 -212 l88 -97 -49 -53 c-27 -29 -71
-78 -99 -111 -27 -32 -59 -68 -70 -80 -32 -34 -155 -196 -155 -204 0 -4 -11
-19 -24 -33 -13 -14 -31 -39 -40 -55 -9 -16 -22 -38 -29 -49 -163 -261 -257
-531 -257 -741 0 -145 60 -301 154 -402 42 -44 153 -117 241 -157 93 -43 306
-96 415 -104 47 -3 175 -5 285 -4 210 1 408 25 622 75 51 12 94 20 96 17 1 -2
29 -80 60 -174 32 -93 66 -192 76 -220 21 -55 140 -300 173 -355 96 -160 228
-328 325 -412 66 -57 165 -119 243 -151 60 -25 76 -27 201 -27 131 0 140 1
210 31 156 66 286 175 450 376 9 12 46 65 81 119 121 184 246 456 328 712 18
57 39 106 45 108 7 3 48 -4 91 -15 44 -11 111 -24 149 -30 39 -5 133 -20 210
-31 122 -19 170 -21 375 -17 204 4 250 8 350 30 376 84 575 277 606 587 10
105 -21 272 -82 445 -22 60 -122 270 -157 329 -102 170 -281 409 -391 522 -79
81 -77 79 -58 100 9 11 53 60 98 109 128 143 344 442 337 467 -2 4 1 8 7 8 12
0 150 275 150 300 0 10 4 21 9 25 5 3 19 36 30 73 70 231 68 437 -7 591 -85
173 -304 310 -572 357 -224 39 -412 40 -720 3 -145 -17 -207 -28 -387 -69 -23
-6 -46 -10 -51 -10 -8 0 -44 98 -57 150 -4 17 -18 60 -30 90 -7 19 -24 64 -38
100 -49 129 -162 359 -224 457 -194 309 -424 509 -640 557 -91 20 -149 19
-244 -4z m224 -269 c246 -85 524 -489 697 -1012 22 -67 40 -127 40 -135 0 -8
-28 -22 -67 -34 -182 -56 -499 -178 -681 -261 -35 -16 -67 -29 -71 -29 -5 0
-40 14 -77 31 -126 57 -154 69 -160 69 -3 0 -22 7 -42 16 -59 26 -73 32 -142
58 -108 41 -282 103 -342 121 -71 22 -72 29 -22 170 20 55 39 114 44 130 4 17
20 57 35 90 15 33 34 76 42 95 9 19 27 58 41 85 14 28 32 64 40 80 45 89 148
250 198 306 114 129 186 186 280 218 74 26 116 26 187 2z m2090 -1262 c222
-34 386 -132 423 -254 31 -106 10 -289 -52 -437 -49 -119 -146 -300 -182 -340
-8 -10 -12 -18 -8 -18 4 0 1 -6 -6 -14 -7 -8 -24 -31 -38 -51 -41 -58 -138
-186 -162 -214 -113 -128 -152 -171 -159 -171 -4 0 -48 35 -97 78 -49 42 -106
91 -126 107 -21 17 -45 37 -54 45 -8 8 -28 24 -43 35 -15 11 -62 47 -105 79
-113 85 -197 147 -243 179 -38 26 -41 32 -41 75 -1 42 -9 121 -26 237 -26 184
-56 366 -74 443 -25 113 -25 139 -2 146 9 3 87 19 172 36 136 26 248 41 425
54 76 6 321 -4 398 -15z m-3765 0 c99 -11 324 -51 395 -70 38 -10 39 -12 32
-42 -3 -18 -10 -54 -15 -82 -4 -27 -18 -97 -30 -155 -11 -58 -25 -139 -31
-180 -5 -41 -11 -84 -13 -95 -2 -11 -11 -78 -20 -150 -9 -71 -19 -144 -22
-161 -3 -25 -17 -39 -62 -69 -64 -43 -204 -148 -242 -183 -14 -12 -59 -48
-100 -80 -41 -31 -79 -62 -85 -68 -5 -6 -52 -49 -104 -95 l-94 -83 -70 74
c-104 110 -236 276 -323 405 -37 56 -64 102 -126 215 -28 51 -96 222 -103 260
-41 207 -28 305 51 390 75 80 209 137 389 165 100 16 444 19 573 4z m848 -202
c165 -56 393 -147 401 -160 4 -6 0 -15 -8 -19 -18 -11 -204 -115 -249 -139
-19 -11 -42 -23 -50 -28 -35 -22 -127 -75 -145 -85 -25 -14 -154 -93 -177
-109 -9 -6 -19 -9 -22 -6 -7 7 17 186 48 354 34 185 47 235 62 235 6 0 69 -20
140 -43z m1650 -13 c36 -156 91 -520 80 -531 -2 -2 -71 36 -152 85 -82 49
-229 133 -326 187 -98 53 -178 101 -178 105 0 8 85 47 175 81 160 58 371 128
380 126 6 -2 15 -26 21 -53z m-788 -356 c59 -29 163 -83 231 -121 67 -37 128
-69 135 -70 6 -1 13 -5 16 -8 3 -4 57 -38 120 -76 351 -213 398 -243 405 -262
3 -8 11 -150 17 -316 14 -397 -1 -863 -29 -882 -10 -7 -23 -16 -29 -21 -5 -5
-66 -44 -135 -87 -68 -43 -135 -85 -149 -94 -26 -18 -182 -110 -248 -146 -217
-121 -437 -235 -453 -235 -14 0 -299 142 -377 189 -29 17 -59 31 -67 31 -7 0
-15 4 -17 9 -1 4 -43 32 -93 61 -139 80 -192 113 -422 263 l-61 40 -8 106
c-10 136 -10 843 0 982 7 102 9 107 34 120 15 8 42 25 61 39 19 14 49 34 67
45 18 11 95 59 171 106 76 48 163 100 193 115 30 16 57 32 60 35 14 18 432
229 453 229 10 0 66 -24 125 -52z m1248 -769 c22 -16 98 -77 169 -133 72 -57
159 -130 194 -163 l65 -59 -44 -40 c-24 -21 -48 -44 -54 -50 -11 -10 -257
-215 -286 -238 -40 -30 -79 -56 -87 -56 -4 0 -8 173 -8 385 0 212 2 385 6 385
4 0 24 -14 45 -31z m-2690 -359 c-1 -209 -4 -380 -9 -380 -6 0 -99 70 -162
122 -11 9 -53 44 -94 77 -115 96 -191 167 -191 179 0 16 111 116 279 250 36
29 73 58 81 65 44 37 84 67 89 67 4 0 7 -171 7 -380z m3361 -233 c71 -74 204
-231 221 -259 9 -16 20 -28 24 -28 4 0 8 -4 8 -10 0 -5 20 -37 44 -72 94 -136
222 -397 261 -532 26 -90 25 -224 -3 -314 -21 -67 -27 -76 -89 -127 -37 -30
-71 -55 -75 -55 -5 0 -29 -9 -54 -20 -46 -21 -74 -28 -228 -56 -123 -22 -467
-15 -651 14 -131 21 -303 58 -322 70 -7 5 -3 44 13 122 22 105 57 333 83 535
6 44 11 111 12 148 l2 68 66 47 c90 63 264 195 331 251 30 25 59 49 65 54 15
11 112 96 177 155 32 28 61 52 66 52 4 0 26 -19 49 -43z m-3935 -34 c153 -138
367 -310 536 -430 36 -26 64 -54 66 -66 2 -12 16 -116 31 -232 22 -180 56
-380 95 -568 5 -27 10 -55 10 -62 0 -15 -109 -42 -315 -77 -172 -30 -529 -32
-700 -5 -104 17 -224 51 -235 67 -3 4 -18 14 -35 23 -60 31 -143 115 -162 165
-20 51 -24 177 -10 267 9 54 83 250 118 312 12 21 33 58 47 83 50 90 213 325
246 355 6 6 33 37 61 70 76 92 147 165 160 165 7 0 46 -30 87 -67z m992 -735
c45 -28 97 -61 116 -73 40 -25 228 -131 370 -208 30 -16 66 -36 79 -44 l24
-15 -34 -15 c-230 -98 -530 -207 -540 -195 -15 19 -80 354 -94 487 -3 33 -9
72 -11 88 -3 15 -2 27 2 27 4 0 44 -23 88 -52z m1902 20 c-3 -18 -13 -87 -21
-153 -18 -139 -65 -397 -74 -407 -13 -15 -531 171 -564 201 -11 10 5 22 93 69
41 21 136 74 210 117 74 43 144 83 155 89 11 6 45 27 75 47 60 40 110 68 123
69 4 0 6 -15 3 -32z m-899 -553 c42 -19 80 -35 84 -35 5 0 37 -13 71 -29 85
-40 313 -125 499 -186 77 -26 86 -31 80 -49 -103 -329 -157 -456 -282 -666
-79 -131 -213 -305 -276 -357 -63 -52 -120 -82 -212 -112 -177 -57 -390 97
-589 426 -54 90 -141 262 -166 330 -101 272 -129 357 -124 381 2 7 59 33 128
57 193 68 263 94 285 105 11 5 45 19 75 30 30 11 73 29 95 39 114 54 192 89
205 94 31 11 53 6 127 -28z"/>
<path d="M4215 3809 c-73 -17 -149 -52 -211 -95 -67 -47 -154 -138 -154 -160
0 -8 -4 -14 -9 -14 -14 0 -70 -149 -81 -212 -19 -121 12 -270 82 -385 71 -118
211 -224 339 -257 79 -20 232 -20 299 0 176 52 321 178 379 330 13 33 28 70
34 83 7 14 12 73 11 145 0 113 -2 126 -33 201 -70 172 -193 288 -371 349 -63
22 -223 30 -285 15z"/>
</g>
</svg>
